<svg xmlns="http://www.w3.org/2000/svg" viewBox="0 0 512 512">
  <!-- Background -->
  <rect width="512" height="512" rx="100" fill="#1a1a1a"/>
  <!-- Magic Wand Icon (simplified from FontAwesome) -->
  <path fill="#7c4dff" d="M447.4 96c0-17.7-14.3-32-32-32s-32 14.3-32 32 14.3 32 32 32 32-14.3 32-32zm43.3 112c0-17.7-14.3-32-32-32s-32 14.3-32 32 14.3 32 32 32 32-14.3 32-32zM448 352c0-17.7-14.3-32-32-32s-32 14.3-32 32 14.3 32 32 32 32-14.3 32-32zm-48-112c0-17.7-14.3-32-32-32s-32 14.3-32 32 14.3 32 32 32 32-14.3 32-32zm-96-80c0-17.7-14.3-32-32-32s-32 14.3-32 32 14.3 32 32 32 32-14.3 32-32zM64 448c0 17.7 14.3 32 32 32s32-14.3 32-32 14.3-32 32-32 32 14.3 32 32zm0-112c0 17.7 14.3 32 32 32s32-14.3 32-32 14.3-32 32-32 32 14.3 32 32zm112 112c0 17.7 14.3 32 32 32s32-14.3 32-32 14.3-32 32-32 32 14.3 32 32zm-32-256c0-17.7-14.3-32-32-32s-32 14.3-32 32 14.3 32 32 32 32-14.3 32-32zm256 256c0 17.7 14.3 32 32 32s32-14.3 32-32 14.3-32 32-32 32 14.3 32 32zm-128 0c0 17.7 14.3 32 32 32s32-14.3 32-32 14.3-32 32-32 32 14.3 32 32zM256 128c0-17.7-14.3-32-32-32s-32 14.3-32 32 14.3 32 32 32 32-14.3 32-32z"/>
  <path fill="#7c4dff" d="M368.4 192.4l-90.9-90.9c-4.7-4.7-12.3-4.7-17 0L36.4 325.6c-4.7 4.7-4.7 12.3 0 17l90.9 90.9c4.7 4.7 12.3 4.7 17 0l224.1-224.1c4.7-4.7 4.7-12.3 0-17z"/>
</svg>
